<svg width="259" height="285" viewBox="0 0 259 285" fill="none" xmlns="http://www.w3.org/2000/svg">
<path d="M282.877 19.1373C305.714 64.7752 320.923 108.806 327.061 143.092C330.13 160.239 330.925 174.919 329.288 186.133C327.647 197.365 323.589 204.996 317.074 208.256C310.559 211.516 302.018 210.19 292.045 204.769C282.088 199.357 270.815 189.92 258.932 177.184C235.169 151.717 209.046 113.147 186.209 67.5094C163.372 21.8714 148.162 -22.1596 142.025 -56.4457C138.955 -73.5921 138.16 -88.2722 139.798 -99.4865C141.438 -110.718 145.496 -118.349 152.011 -121.609C158.526 -124.869 167.067 -123.543 177.04 -118.122C186.997 -112.71 198.27 -103.273 210.154 -90.5371C233.916 -65.0704 260.04 -26.5007 282.877 19.1373Z" stroke="white"/>
<path d="M252.126 -7.76962C300.545 8.3531 342.435 28.7329 371.019 48.637C385.313 58.5909 396.256 68.4092 403.028 77.4968C409.81 86.5985 412.336 94.8643 410.035 101.776C407.733 108.688 400.756 113.79 389.871 117.008C379.003 120.222 364.359 121.521 346.95 120.918C312.14 119.713 266.395 110.912 217.976 94.7892C169.557 78.6665 127.668 58.2866 99.0837 38.3826C84.789 28.4286 73.8464 18.6104 67.0746 9.52276C60.2923 0.421024 57.766 -7.8447 60.0676 -14.7567C62.3692 -21.6687 69.3464 -26.77 80.2313 -29.9888C91.0992 -33.2027 105.744 -34.501 123.152 -33.8983C157.962 -32.6932 203.707 -23.8923 252.126 -7.76962Z" stroke="white"/>
<path d="M285.636 60.9071C269.513 109.326 249.133 151.216 229.229 179.799C219.275 194.094 209.457 205.037 200.369 211.809C191.267 218.591 183.002 221.117 176.09 218.816C169.178 216.514 164.076 209.537 160.858 198.652C157.644 187.784 156.345 173.14 156.948 155.731C158.153 120.921 166.954 75.1759 183.077 26.7568C199.2 -21.6623 219.579 -63.5517 239.483 -92.1355C249.437 -106.43 259.256 -117.373 268.343 -124.145C277.445 -130.927 285.711 -133.453 292.623 -131.152C299.535 -128.85 304.636 -121.873 307.855 -110.988C311.069 -100.12 312.367 -85.4757 311.764 -68.0672C310.559 -33.257 301.758 12.488 285.636 60.9071Z" stroke="white"/>
</svg>
