<svg width="335" height="323" viewBox="0 0 335 323" fill="none" xmlns="http://www.w3.org/2000/svg">
<rect y="56" width="335" height="1" fill="#E8F3F1"/>
<rect y="126" width="335" height="1" fill="#E8F3F1"/>
<rect y="196" width="335" height="1" fill="#E8F3F1"/>
<rect y="266" width="335" height="1" fill="#E8F3F1"/>
<circle cx="21.5" cy="301.5" r="21.5" fill="#E8F3F1"/>
<path fill-rule="evenodd" clip-rule="evenodd" d="M21 293.5C16.313 293.5 12.5 297.313 12.5 302C12.5 306.687 16.313 310.5 21 310.5C25.687 310.5 29.5 306.687 29.5 302C29.5 297.313 25.687 293.5 21 293.5M21 312C15.486 312 11 307.514 11 302C11 296.486 15.486 292 21 292C26.514 292 31 296.486 31 302C31 307.514 26.514 312 21 312" fill="#FE5C5C"/>
<path fill-rule="evenodd" clip-rule="evenodd" d="M20.9941 303.373C20.5801 303.373 20.2441 303.037 20.2441 302.623V298.204C20.2441 297.79 20.5801 297.454 20.9941 297.454C21.4081 297.454 21.7441 297.79 21.7441 298.204V302.623C21.7441 303.037 21.4081 303.373 20.9941 303.373" fill="#FE5C5C"/>
<path fill-rule="evenodd" clip-rule="evenodd" d="M21.0038 306.796C20.4508 306.796 19.9988 306.349 19.9988 305.796C19.9988 305.243 20.4418 304.796 20.9938 304.796H21.0038C21.5568 304.796 22.0038 305.243 22.0038 305.796C22.0038 306.349 21.5568 306.796 21.0038 306.796" fill="#FE5C5C"/>
<path d="M318.746 309.759C318.448 309.467 318.421 309.009 318.665 308.687L318.746 308.595L325.473 302L318.746 295.405C318.448 295.113 318.421 294.656 318.665 294.333L318.746 294.241C319.044 293.949 319.51 293.922 319.839 294.161L319.933 294.241L327.254 301.418C327.552 301.71 327.579 302.167 327.335 302.49L327.254 302.582L319.933 309.759C319.605 310.08 319.074 310.08 318.746 309.759Z" fill="#555555"/>
<path d="M62.1477 307V295.364H64.2557V305.233H69.3807V307H62.1477ZM74.9261 307.17C74.0739 307.17 73.3352 306.983 72.7102 306.608C72.0852 306.233 71.6004 305.708 71.2557 305.034C70.9148 304.36 70.7443 303.572 70.7443 302.67C70.7443 301.769 70.9148 300.979 71.2557 300.301C71.6004 299.623 72.0852 299.097 72.7102 298.722C73.3352 298.347 74.0739 298.159 74.9261 298.159C75.7784 298.159 76.517 298.347 77.142 298.722C77.767 299.097 78.25 299.623 78.5909 300.301C78.9356 300.979 79.108 301.769 79.108 302.67C79.108 303.572 78.9356 304.36 78.5909 305.034C78.25 305.708 77.767 306.233 77.142 306.608C76.517 306.983 75.7784 307.17 74.9261 307.17ZM74.9375 305.523C75.3996 305.523 75.786 305.396 76.0966 305.142C76.4072 304.884 76.6383 304.54 76.7898 304.108C76.9451 303.676 77.0227 303.195 77.0227 302.665C77.0227 302.131 76.9451 301.648 76.7898 301.216C76.6383 300.78 76.4072 300.434 76.0966 300.176C75.786 299.919 75.3996 299.79 74.9375 299.79C74.464 299.79 74.0701 299.919 73.7557 300.176C73.4451 300.434 73.2121 300.78 73.0568 301.216C72.9053 301.648 72.8295 302.131 72.8295 302.665C72.8295 303.195 72.9053 303.676 73.0568 304.108C73.2121 304.54 73.4451 304.884 73.7557 305.142C74.0701 305.396 74.464 305.523 74.9375 305.523ZM84.6491 310.455C83.9105 310.455 83.276 310.354 82.7457 310.153C82.2154 309.956 81.7893 309.691 81.4673 309.358C81.1454 309.025 80.9219 308.655 80.7969 308.25L82.6491 307.801C82.7325 307.972 82.8537 308.14 83.0128 308.307C83.1719 308.477 83.3859 308.617 83.6548 308.727C83.9276 308.841 84.2704 308.898 84.6832 308.898C85.2666 308.898 85.7495 308.756 86.1321 308.472C86.5147 308.191 86.706 307.729 86.706 307.085V305.432H86.6037C86.4976 305.644 86.3423 305.862 86.1378 306.085C85.937 306.309 85.67 306.496 85.3366 306.648C85.0071 306.799 84.5923 306.875 84.0923 306.875C83.4219 306.875 82.8139 306.718 82.2685 306.403C81.7268 306.085 81.295 305.612 80.973 304.983C80.6548 304.35 80.4957 303.559 80.4957 302.608C80.4957 301.65 80.6548 300.841 80.973 300.182C81.295 299.519 81.7287 299.017 82.2741 298.676C82.8196 298.331 83.4276 298.159 84.098 298.159C84.6094 298.159 85.0298 298.246 85.3594 298.42C85.6927 298.591 85.9579 298.797 86.1548 299.04C86.3518 299.278 86.5014 299.504 86.6037 299.716H86.7173V298.273H88.7457V307.142C88.7457 307.888 88.5677 308.506 88.2116 308.994C87.8556 309.483 87.3688 309.848 86.7514 310.091C86.134 310.333 85.4332 310.455 84.6491 310.455ZM84.6662 305.261C85.1018 305.261 85.473 305.155 85.7798 304.943C86.0866 304.731 86.3196 304.426 86.4787 304.028C86.6378 303.631 86.7173 303.153 86.7173 302.597C86.7173 302.047 86.6378 301.566 86.4787 301.153C86.3234 300.741 86.0923 300.42 85.7855 300.193C85.4825 299.962 85.1094 299.847 84.6662 299.847C84.2079 299.847 83.8253 299.966 83.5185 300.205C83.2116 300.443 82.9806 300.771 82.8253 301.188C82.67 301.6 82.5923 302.07 82.5923 302.597C82.5923 303.131 82.67 303.598 82.8253 304C82.9844 304.398 83.2173 304.708 83.5241 304.932C83.8348 305.152 84.2154 305.261 84.6662 305.261ZM94.6605 307.17C93.8082 307.17 93.0696 306.983 92.4446 306.608C91.8196 306.233 91.3348 305.708 90.9901 305.034C90.6491 304.36 90.4787 303.572 90.4787 302.67C90.4787 301.769 90.6491 300.979 90.9901 300.301C91.3348 299.623 91.8196 299.097 92.4446 298.722C93.0696 298.347 93.8082 298.159 94.6605 298.159C95.5128 298.159 96.2514 298.347 96.8764 298.722C97.5014 299.097 97.9844 299.623 98.3253 300.301C98.67 300.979 98.8423 301.769 98.8423 302.67C98.8423 303.572 98.67 304.36 98.3253 305.034C97.9844 305.708 97.5014 306.233 96.8764 306.608C96.2514 306.983 95.5128 307.17 94.6605 307.17ZM94.6719 305.523C95.134 305.523 95.5204 305.396 95.831 305.142C96.1416 304.884 96.3726 304.54 96.5241 304.108C96.6795 303.676 96.7571 303.195 96.7571 302.665C96.7571 302.131 96.6795 301.648 96.5241 301.216C96.3726 300.78 96.1416 300.434 95.831 300.176C95.5204 299.919 95.134 299.79 94.6719 299.79C94.1984 299.79 93.8045 299.919 93.4901 300.176C93.1795 300.434 92.9465 300.78 92.7912 301.216C92.6397 301.648 92.5639 302.131 92.5639 302.665C92.5639 303.195 92.6397 303.676 92.7912 304.108C92.9465 304.54 93.1795 304.884 93.4901 305.142C93.8045 305.396 94.1984 305.523 94.6719 305.523ZM106.151 303.33V298.273H108.207V307H106.213V305.449H106.122C105.925 305.937 105.601 306.337 105.151 306.648C104.704 306.958 104.152 307.114 103.497 307.114C102.925 307.114 102.42 306.987 101.98 306.733C101.545 306.475 101.204 306.102 100.957 305.614C100.711 305.121 100.588 304.527 100.588 303.83V298.273H102.645V303.511C102.645 304.064 102.796 304.504 103.099 304.83C103.402 305.155 103.8 305.318 104.293 305.318C104.596 305.318 104.889 305.244 105.173 305.097C105.457 304.949 105.69 304.729 105.872 304.438C106.058 304.142 106.151 303.773 106.151 303.33ZM114.68 298.273V299.864H109.663V298.273H114.68ZM110.902 296.182H112.959V304.375C112.959 304.652 113 304.864 113.084 305.011C113.171 305.155 113.285 305.254 113.425 305.307C113.565 305.36 113.72 305.386 113.891 305.386C114.019 305.386 114.137 305.377 114.243 305.358C114.353 305.339 114.436 305.322 114.493 305.307L114.839 306.915C114.73 306.953 114.572 306.994 114.368 307.04C114.167 307.085 113.921 307.112 113.629 307.119C113.114 307.134 112.65 307.057 112.237 306.886C111.824 306.712 111.497 306.443 111.254 306.08C111.016 305.716 110.898 305.261 110.902 304.716V296.182Z" fill="#FF5C5C"/>
<circle cx="21.5" cy="231.5" r="21.5" fill="#E8F3F1"/>
<mask id="mask0_1_1143" style="mask-type:alpha" maskUnits="userSpaceOnUse" x="10" y="221" width="22" height="22">
<path fill-rule="evenodd" clip-rule="evenodd" d="M10 221H31.493V242.494H10V221Z" fill="white"/>
</mask>
<g mask="url(#mask0_1_1143)">
<path fill-rule="evenodd" clip-rule="evenodd" d="M15.1084 239.675C15.6884 239.675 16.2354 239.895 16.8144 240.128C20.3614 241.768 24.5564 241.022 27.2894 238.29C30.8954 234.682 30.8954 228.813 27.2894 225.207C25.5434 223.461 23.2214 222.5 20.7494 222.5C18.2764 222.5 15.9534 223.462 14.2084 225.208C11.4744 227.94 10.7304 232.135 12.3554 235.648C12.5894 236.227 12.8154 236.791 12.8154 237.377C12.8154 237.962 12.6144 238.551 12.4374 239.071C12.2914 239.499 12.0704 240.145 12.2124 240.287C12.3514 240.431 13.0014 240.204 13.4304 240.057C13.9454 239.881 14.5294 239.679 15.1084 239.675V239.675ZM20.7244 242.494C19.1964 242.494 17.6584 242.171 16.2194 241.505C15.7954 241.335 15.3984 241.175 15.1134 241.175C14.7854 241.177 14.3444 241.329 13.9184 241.476C13.0444 241.776 11.9564 242.15 11.1514 241.348C10.3494 240.545 10.7194 239.46 11.0174 238.587C11.1644 238.157 11.3154 237.713 11.3154 237.377C11.3154 237.101 11.1824 236.749 10.9784 236.242C9.10544 232.197 9.97144 227.322 13.1484 224.147C15.1764 222.118 17.8754 221 20.7484 221C23.6214 221 26.3214 222.117 28.3494 224.146C32.5414 228.338 32.5414 235.158 28.3494 239.35C26.2944 241.406 23.5274 242.494 20.7244 242.494V242.494Z" fill="#199A8E"/>
</g>
<path fill-rule="evenodd" clip-rule="evenodd" d="M24.6964 233.163C24.1444 233.163 23.6924 232.716 23.6924 232.163C23.6924 231.61 24.1354 231.163 24.6874 231.163H24.6964C25.2484 231.163 25.6964 231.61 25.6964 232.163C25.6964 232.716 25.2484 233.163 24.6964 233.163" fill="#199A8E"/>
<path fill-rule="evenodd" clip-rule="evenodd" d="M20.6876 233.163C20.1356 233.163 19.6836 232.716 19.6836 232.163C19.6836 231.61 20.1256 231.163 20.6786 231.163H20.6876C21.2396 231.163 21.6876 231.61 21.6876 232.163C21.6876 232.716 21.2396 233.163 20.6876 233.163" fill="#199A8E"/>
<path fill-rule="evenodd" clip-rule="evenodd" d="M16.6783 233.163C16.1263 233.163 15.6743 232.716 15.6743 232.163C15.6743 231.61 16.1173 231.163 16.6693 231.163H16.6783C17.2303 231.163 17.6783 231.61 17.6783 232.163C17.6783 232.716 17.2303 233.163 16.6783 233.163" fill="#199A8E"/>
<path d="M318.746 239.759C318.448 239.467 318.421 239.009 318.665 238.687L318.746 238.595L325.473 232L318.746 225.405C318.448 225.113 318.421 224.656 318.665 224.333L318.746 224.241C319.044 223.949 319.51 223.922 319.839 224.161L319.933 224.241L327.254 231.418C327.552 231.71 327.579 232.167 327.335 232.49L327.254 232.582L319.933 239.759C319.605 240.08 319.074 240.08 318.746 239.759Z" fill="#555555"/>
<path d="M62.1477 237V225.364H69.6023V227.131H64.2557V230.29H69.0909V232.057H64.2557V237H62.1477ZM71.5639 237H69.3139L73.4105 225.364H76.0128L80.1151 237H77.8651L74.7571 227.75H74.6662L71.5639 237ZM71.6378 232.438H77.7741V234.131H71.6378V232.438ZM85.4361 233.091H87.3452L88.4759 234.557L89.2827 235.511L91.2202 238H89.1747L87.8565 236.33L87.294 235.534L85.4361 233.091ZM91.4986 231.182C91.4986 232.436 91.2637 233.509 90.794 234.403C90.3281 235.294 89.6918 235.975 88.8849 236.449C88.0819 236.922 87.1709 237.159 86.152 237.159C85.133 237.159 84.2202 236.922 83.4134 236.449C82.6103 235.972 81.974 235.288 81.5043 234.398C81.0384 233.504 80.8054 232.432 80.8054 231.182C80.8054 229.928 81.0384 228.856 81.5043 227.966C81.974 227.072 82.6103 226.388 83.4134 225.915C84.2202 225.441 85.133 225.205 86.152 225.205C87.1709 225.205 88.0819 225.441 88.8849 225.915C89.6918 226.388 90.3281 227.072 90.794 227.966C91.2637 228.856 91.4986 229.928 91.4986 231.182ZM89.3793 231.182C89.3793 230.299 89.241 229.555 88.9645 228.949C88.6918 228.339 88.313 227.879 87.8281 227.568C87.3433 227.254 86.7846 227.097 86.152 227.097C85.5194 227.097 84.9607 227.254 84.4759 227.568C83.991 227.879 83.6103 228.339 83.3338 228.949C83.0611 229.555 82.9247 230.299 82.9247 231.182C82.9247 232.064 83.0611 232.811 83.3338 233.42C83.6103 234.027 83.991 234.487 84.4759 234.801C84.9607 235.112 85.5194 235.267 86.152 235.267C86.7846 235.267 87.3433 235.112 87.8281 234.801C88.313 234.487 88.6918 234.027 88.9645 233.42C89.241 232.811 89.3793 232.064 89.3793 231.182ZM100.314 230.58L98.4389 230.784C98.3859 230.595 98.2931 230.417 98.1605 230.25C98.0317 230.083 97.8575 229.949 97.6378 229.847C97.4181 229.744 97.1491 229.693 96.831 229.693C96.4029 229.693 96.0431 229.786 95.7514 229.972C95.4635 230.157 95.3215 230.398 95.3253 230.693C95.3215 230.947 95.4143 231.153 95.6037 231.312C95.7969 231.472 96.1151 231.602 96.5582 231.705L98.0469 232.023C98.8726 232.201 99.4863 232.483 99.8878 232.869C100.293 233.256 100.498 233.761 100.501 234.386C100.498 234.936 100.337 235.42 100.018 235.841C99.7041 236.258 99.2666 236.583 98.706 236.818C98.1454 237.053 97.5014 237.17 96.7741 237.17C95.706 237.17 94.8461 236.947 94.1946 236.5C93.5431 236.049 93.1548 235.422 93.0298 234.619L95.0355 234.426C95.1264 234.82 95.3196 235.117 95.6151 235.318C95.9105 235.519 96.295 235.619 96.7685 235.619C97.2571 235.619 97.6491 235.519 97.9446 235.318C98.2438 235.117 98.3935 234.869 98.3935 234.574C98.3935 234.324 98.2969 234.117 98.1037 233.955C97.9143 233.792 97.6188 233.667 97.2173 233.58L95.7287 233.267C94.8916 233.093 94.2723 232.799 93.8707 232.386C93.4692 231.97 93.2704 231.443 93.2741 230.807C93.2704 230.269 93.4162 229.803 93.7116 229.409C94.0109 229.011 94.4257 228.705 94.956 228.489C95.4901 228.269 96.1056 228.159 96.8026 228.159C97.8253 228.159 98.6302 228.377 99.2173 228.812C99.8082 229.248 100.174 229.837 100.314 230.58Z" fill="#101623"/>
<circle cx="21.5" cy="161.5" r="21.5" fill="#E8F3F1"/>
<path fill-rule="evenodd" clip-rule="evenodd" d="M30.8887 164.896H26.8407C24.9437 164.896 23.3997 163.353 23.3987 161.457C23.3987 159.559 24.9427 158.015 26.8407 158.014H30.8887C31.3027 158.014 31.6387 158.35 31.6387 158.764C31.6387 159.178 31.3027 159.514 30.8887 159.514H26.8407C25.7697 159.515 24.8987 160.386 24.8987 161.456C24.8987 162.525 25.7707 163.396 26.8407 163.396H30.8887C31.3027 163.396 31.6387 163.732 31.6387 164.146C31.6387 164.56 31.3027 164.896 30.8887 164.896" fill="#199A8E"/>
<path fill-rule="evenodd" clip-rule="evenodd" d="M27.2983 162.144H26.9863C26.5723 162.144 26.2363 161.808 26.2363 161.394C26.2363 160.98 26.5723 160.644 26.9863 160.644H27.2983C27.7123 160.644 28.0483 160.98 28.0483 161.394C28.0483 161.808 27.7123 162.144 27.2983 162.144" fill="#199A8E"/>
<mask id="mask1_1_1143" style="mask-type:alpha" maskUnits="userSpaceOnUse" x="11" y="152" width="21" height="20">
<path fill-rule="evenodd" clip-rule="evenodd" d="M11 152H31.6386V171.173H11V152Z" fill="white"/>
</mask>
<g mask="url(#mask1_1_1143)">
<path fill-rule="evenodd" clip-rule="evenodd" d="M16.9975 153.5C14.5175 153.5 12.4995 155.518 12.4995 157.998V165.175C12.4995 167.655 14.5175 169.673 16.9975 169.673H25.6415C28.1215 169.673 30.1385 167.655 30.1385 165.175V157.998C30.1385 155.518 28.1215 153.5 25.6415 153.5H16.9975ZM25.6415 171.173H16.9975C13.6905 171.173 10.9995 168.482 10.9995 165.175V157.998C10.9995 154.69 13.6905 152 16.9975 152H25.6415C28.9485 152 31.6385 154.69 31.6385 157.998V165.175C31.6385 168.482 28.9485 171.173 25.6415 171.173V171.173Z" fill="#199A8E"/>
</g>
<path fill-rule="evenodd" clip-rule="evenodd" d="M21.6846 158.038H16.2856C15.8716 158.038 15.5356 157.702 15.5356 157.288C15.5356 156.874 15.8716 156.538 16.2856 156.538H21.6846C22.0986 156.538 22.4346 156.874 22.4346 157.288C22.4346 157.702 22.0986 158.038 21.6846 158.038" fill="#199A8E"/>
<path d="M318.746 168.759C318.448 168.467 318.421 168.009 318.665 167.687L318.746 167.595L325.473 161L318.746 154.405C318.448 154.113 318.421 153.656 318.665 153.333L318.746 153.241C319.044 152.949 319.51 152.922 319.839 153.161L319.933 153.241L327.254 160.418C327.552 160.71 327.579 161.167 327.335 161.49L327.254 161.582L319.933 168.759C319.605 169.08 319.074 169.08 318.746 168.759Z" fill="#555555"/>
<path d="M62.1477 167V155.364H66.5114C67.4053 155.364 68.1553 155.53 68.7614 155.864C69.3712 156.197 69.8314 156.655 70.142 157.239C70.4564 157.818 70.6136 158.477 70.6136 159.216C70.6136 159.962 70.4564 160.625 70.142 161.205C69.8277 161.784 69.3636 162.241 68.75 162.574C68.1364 162.903 67.3807 163.068 66.483 163.068H63.5909V161.335H66.1989C66.7216 161.335 67.1496 161.244 67.483 161.062C67.8163 160.881 68.0625 160.631 68.2216 160.312C68.3845 159.994 68.4659 159.629 68.4659 159.216C68.4659 158.803 68.3845 158.439 68.2216 158.125C68.0625 157.811 67.8144 157.566 67.4773 157.392C67.1439 157.214 66.714 157.125 66.1875 157.125H64.2557V167H62.1477ZM74.7088 167.176C74.1558 167.176 73.6577 167.078 73.2145 166.881C72.7751 166.68 72.4266 166.384 72.169 165.994C71.9152 165.604 71.7884 165.123 71.7884 164.551C71.7884 164.059 71.8793 163.652 72.0611 163.33C72.2429 163.008 72.491 162.75 72.8054 162.557C73.1198 162.364 73.474 162.218 73.8679 162.119C74.2656 162.017 74.6766 161.943 75.1009 161.898C75.6122 161.845 76.027 161.797 76.3452 161.756C76.6634 161.71 76.8944 161.642 77.0384 161.551C77.1861 161.456 77.2599 161.311 77.2599 161.114V161.08C77.2599 160.652 77.133 160.32 76.8793 160.085C76.6255 159.85 76.2599 159.733 75.7827 159.733C75.2789 159.733 74.8793 159.843 74.5838 160.062C74.2921 160.282 74.0952 160.542 73.9929 160.841L72.0724 160.568C72.224 160.038 72.474 159.595 72.8224 159.239C73.1709 158.879 73.5971 158.61 74.1009 158.432C74.6046 158.25 75.1615 158.159 75.7713 158.159C76.1918 158.159 76.6103 158.208 77.027 158.307C77.4437 158.405 77.8243 158.568 78.169 158.795C78.5137 159.019 78.7902 159.324 78.9986 159.71C79.2107 160.097 79.3168 160.58 79.3168 161.159V167H77.3395V165.801H77.2713C77.1463 166.044 76.9702 166.271 76.7429 166.483C76.5194 166.691 76.2372 166.86 75.8963 166.989C75.5592 167.114 75.1634 167.176 74.7088 167.176ZM75.2429 165.665C75.6558 165.665 76.0137 165.583 76.3168 165.42C76.6198 165.254 76.8527 165.034 77.0156 164.761C77.1823 164.489 77.2656 164.191 77.2656 163.869V162.841C77.2012 162.894 77.0914 162.943 76.9361 162.989C76.7846 163.034 76.6141 163.074 76.4247 163.108C76.2353 163.142 76.0478 163.172 75.8622 163.199C75.6766 163.225 75.5156 163.248 75.3793 163.267C75.0724 163.309 74.7978 163.377 74.5554 163.472C74.313 163.566 74.1217 163.699 73.9815 163.869C73.8414 164.036 73.7713 164.252 73.7713 164.517C73.7713 164.896 73.9096 165.182 74.1861 165.375C74.4626 165.568 74.8149 165.665 75.2429 165.665ZM82.3509 170.273C82.0705 170.273 81.8111 170.25 81.5724 170.205C81.3376 170.163 81.1501 170.114 81.0099 170.057L81.4872 168.455C81.7865 168.542 82.0535 168.583 82.2884 168.58C82.5232 168.576 82.7296 168.502 82.9077 168.358C83.0895 168.218 83.2429 167.983 83.3679 167.653L83.544 167.182L80.3793 158.273H82.5611L84.5724 164.864H84.6634L86.6804 158.273H88.8679L85.3736 168.057C85.2107 168.519 84.9948 168.915 84.7259 169.244C84.4569 169.578 84.1274 169.831 83.7372 170.006C83.3509 170.184 82.8887 170.273 82.3509 170.273ZM90.2912 167V158.273H92.2571V159.756H92.3594C92.5412 159.256 92.8423 158.866 93.2628 158.585C93.6832 158.301 94.1851 158.159 94.7685 158.159C95.3594 158.159 95.8575 158.303 96.2628 158.591C96.6719 158.875 96.9598 159.263 97.1264 159.756H97.2173C97.4105 159.271 97.7363 158.884 98.1946 158.597C98.6567 158.305 99.2041 158.159 99.8366 158.159C100.64 158.159 101.295 158.413 101.803 158.92C102.31 159.428 102.564 160.169 102.564 161.142V167H100.501V161.46C100.501 160.919 100.357 160.523 100.07 160.273C99.7817 160.019 99.4295 159.892 99.0128 159.892C98.5166 159.892 98.1283 160.047 97.848 160.358C97.5715 160.665 97.4332 161.064 97.4332 161.557V167H95.4162V161.375C95.4162 160.924 95.2798 160.564 95.0071 160.295C94.7382 160.027 94.3859 159.892 93.9503 159.892C93.6548 159.892 93.3859 159.968 93.1435 160.119C92.901 160.267 92.7079 160.477 92.5639 160.75C92.42 161.019 92.348 161.333 92.348 161.693V167H90.2912ZM108.514 167.17C107.639 167.17 106.884 166.989 106.247 166.625C105.615 166.258 105.128 165.739 104.787 165.068C104.446 164.394 104.276 163.6 104.276 162.688C104.276 161.79 104.446 161.002 104.787 160.324C105.132 159.642 105.613 159.112 106.23 158.733C106.848 158.35 107.573 158.159 108.406 158.159C108.944 158.159 109.452 158.246 109.929 158.42C110.41 158.591 110.834 158.856 111.202 159.216C111.573 159.576 111.865 160.034 112.077 160.591C112.289 161.144 112.395 161.803 112.395 162.568V163.199H105.241V161.812H110.423C110.42 161.419 110.334 161.068 110.168 160.761C110.001 160.451 109.768 160.206 109.469 160.028C109.173 159.85 108.829 159.761 108.435 159.761C108.014 159.761 107.645 159.864 107.327 160.068C107.009 160.269 106.76 160.534 106.582 160.864C106.408 161.189 106.319 161.547 106.315 161.938V163.148C106.315 163.655 106.408 164.091 106.594 164.455C106.779 164.814 107.039 165.091 107.372 165.284C107.705 165.473 108.096 165.568 108.543 165.568C108.842 165.568 109.113 165.527 109.355 165.443C109.598 165.356 109.808 165.229 109.986 165.062C110.164 164.896 110.298 164.689 110.389 164.443L112.31 164.659C112.188 165.167 111.957 165.61 111.616 165.989C111.279 166.364 110.848 166.655 110.321 166.864C109.795 167.068 109.192 167.17 108.514 167.17ZM116.192 161.886V167H114.135V158.273H116.101V159.756H116.203C116.404 159.267 116.724 158.879 117.163 158.591C117.607 158.303 118.154 158.159 118.805 158.159C119.408 158.159 119.932 158.288 120.379 158.545C120.83 158.803 121.179 159.176 121.425 159.665C121.675 160.153 121.798 160.746 121.794 161.443V167H119.737V161.761C119.737 161.178 119.586 160.722 119.283 160.392C118.983 160.062 118.569 159.898 118.038 159.898C117.679 159.898 117.358 159.977 117.078 160.136C116.802 160.292 116.584 160.517 116.425 160.812C116.269 161.108 116.192 161.466 116.192 161.886ZM128.243 158.273V159.864H123.226V158.273H128.243ZM124.464 156.182H126.521V164.375C126.521 164.652 126.563 164.864 126.646 165.011C126.733 165.155 126.847 165.254 126.987 165.307C127.127 165.36 127.283 165.386 127.453 165.386C127.582 165.386 127.699 165.377 127.805 165.358C127.915 165.339 127.999 165.322 128.055 165.307L128.402 166.915C128.292 166.953 128.135 166.994 127.93 167.04C127.73 167.085 127.483 167.112 127.192 167.119C126.677 167.134 126.213 167.057 125.8 166.886C125.387 166.712 125.059 166.443 124.817 166.08C124.578 165.716 124.461 165.261 124.464 164.716V156.182ZM134.023 155.364H136.602L140.057 163.795H140.193L143.648 155.364H146.227V167H144.205V159.006H144.097L140.881 166.966H139.369L136.153 158.989H136.045V167H134.023V155.364ZM152.295 167.17C151.42 167.17 150.665 166.989 150.028 166.625C149.396 166.258 148.909 165.739 148.568 165.068C148.227 164.394 148.057 163.6 148.057 162.688C148.057 161.79 148.227 161.002 148.568 160.324C148.913 159.642 149.394 159.112 150.011 158.733C150.629 158.35 151.354 158.159 152.188 158.159C152.725 158.159 153.233 158.246 153.71 158.42C154.191 158.591 154.616 158.856 154.983 159.216C155.354 159.576 155.646 160.034 155.858 160.591C156.07 161.144 156.176 161.803 156.176 162.568V163.199H149.023V161.812H154.205C154.201 161.419 154.116 161.068 153.949 160.761C153.782 160.451 153.549 160.206 153.25 160.028C152.955 159.85 152.61 159.761 152.216 159.761C151.795 159.761 151.426 159.864 151.108 160.068C150.79 160.269 150.542 160.534 150.364 160.864C150.189 161.189 150.1 161.547 150.097 161.938V163.148C150.097 163.655 150.189 164.091 150.375 164.455C150.561 164.814 150.82 165.091 151.153 165.284C151.487 165.473 151.877 165.568 152.324 165.568C152.623 165.568 152.894 165.527 153.136 165.443C153.379 165.356 153.589 165.229 153.767 165.062C153.945 164.896 154.08 164.689 154.17 164.443L156.091 164.659C155.97 165.167 155.739 165.61 155.398 165.989C155.061 166.364 154.629 166.655 154.102 166.864C153.576 167.068 152.973 167.17 152.295 167.17ZM162.274 158.273V159.864H157.257V158.273H162.274ZM158.496 156.182H160.553V164.375C160.553 164.652 160.594 164.864 160.678 165.011C160.765 165.155 160.878 165.254 161.018 165.307C161.159 165.36 161.314 165.386 161.484 165.386C161.613 165.386 161.731 165.377 161.837 165.358C161.946 165.339 162.03 165.322 162.087 165.307L162.433 166.915C162.323 166.953 162.166 166.994 161.962 167.04C161.761 167.085 161.515 167.112 161.223 167.119C160.708 167.134 160.244 167.057 159.831 166.886C159.418 166.712 159.09 166.443 158.848 166.08C158.609 165.716 158.492 165.261 158.496 164.716V156.182ZM166.239 161.886V167H164.182V155.364H166.193V159.756H166.295C166.5 159.263 166.816 158.875 167.244 158.591C167.676 158.303 168.225 158.159 168.892 158.159C169.498 158.159 170.027 158.286 170.477 158.54C170.928 158.794 171.277 159.165 171.523 159.653C171.773 160.142 171.898 160.739 171.898 161.443V167H169.841V161.761C169.841 161.174 169.689 160.718 169.386 160.392C169.087 160.062 168.667 159.898 168.125 159.898C167.761 159.898 167.436 159.977 167.148 160.136C166.864 160.292 166.64 160.517 166.477 160.812C166.318 161.108 166.239 161.466 166.239 161.886ZM177.801 167.17C176.949 167.17 176.21 166.983 175.585 166.608C174.96 166.233 174.475 165.708 174.131 165.034C173.79 164.36 173.619 163.572 173.619 162.67C173.619 161.769 173.79 160.979 174.131 160.301C174.475 159.623 174.96 159.097 175.585 158.722C176.21 158.347 176.949 158.159 177.801 158.159C178.653 158.159 179.392 158.347 180.017 158.722C180.642 159.097 181.125 159.623 181.466 160.301C181.811 160.979 181.983 161.769 181.983 162.67C181.983 163.572 181.811 164.36 181.466 165.034C181.125 165.708 180.642 166.233 180.017 166.608C179.392 166.983 178.653 167.17 177.801 167.17ZM177.812 165.523C178.275 165.523 178.661 165.396 178.972 165.142C179.282 164.884 179.513 164.54 179.665 164.108C179.82 163.676 179.898 163.195 179.898 162.665C179.898 162.131 179.82 161.648 179.665 161.216C179.513 160.78 179.282 160.434 178.972 160.176C178.661 159.919 178.275 159.79 177.812 159.79C177.339 159.79 176.945 159.919 176.631 160.176C176.32 160.434 176.087 160.78 175.932 161.216C175.78 161.648 175.705 162.131 175.705 162.665C175.705 163.195 175.78 163.676 175.932 164.108C176.087 164.54 176.32 164.884 176.631 165.142C176.945 165.396 177.339 165.523 177.812 165.523ZM186.967 167.153C186.282 167.153 185.668 166.977 185.126 166.625C184.585 166.273 184.157 165.761 183.842 165.091C183.528 164.42 183.371 163.606 183.371 162.648C183.371 161.678 183.53 160.86 183.848 160.193C184.17 159.523 184.604 159.017 185.149 158.676C185.695 158.331 186.303 158.159 186.973 158.159C187.484 158.159 187.905 158.246 188.234 158.42C188.564 158.591 188.825 158.797 189.018 159.04C189.212 159.278 189.361 159.504 189.467 159.716H189.553V155.364H191.615V167H189.592V165.625H189.467C189.361 165.837 189.208 166.062 189.007 166.301C188.806 166.536 188.541 166.737 188.212 166.903C187.882 167.07 187.467 167.153 186.967 167.153ZM187.541 165.466C187.977 165.466 188.348 165.348 188.655 165.114C188.962 164.875 189.195 164.544 189.354 164.119C189.513 163.695 189.592 163.201 189.592 162.636C189.592 162.072 189.513 161.581 189.354 161.165C189.198 160.748 188.967 160.424 188.661 160.193C188.357 159.962 187.984 159.847 187.541 159.847C187.083 159.847 186.7 159.966 186.393 160.205C186.087 160.443 185.856 160.773 185.7 161.193C185.545 161.614 185.467 162.095 185.467 162.636C185.467 163.182 185.545 163.669 185.7 164.097C185.859 164.521 186.092 164.856 186.399 165.102C186.71 165.345 187.09 165.466 187.541 165.466Z" fill="#101623"/>
<circle cx="21.5" cy="91.5" r="21.5" fill="#E8F3F1"/>
<path fill-rule="evenodd" clip-rule="evenodd" d="M24.7158 95.9738H17.4958C17.0818 95.9738 16.7458 95.6378 16.7458 95.2238C16.7458 94.8098 17.0818 94.4738 17.4958 94.4738H24.7158C25.1298 94.4738 25.4658 94.8098 25.4658 95.2238C25.4658 95.6378 25.1298 95.9738 24.7158 95.9738" fill="#199A8E"/>
<path fill-rule="evenodd" clip-rule="evenodd" d="M24.7158 91.7872H17.4958C17.0818 91.7872 16.7458 91.4512 16.7458 91.0372C16.7458 90.6232 17.0818 90.2872 17.4958 90.2872H24.7158C25.1298 90.2872 25.4658 90.6232 25.4658 91.0372C25.4658 91.4512 25.1298 91.7872 24.7158 91.7872" fill="#199A8E"/>
<path fill-rule="evenodd" clip-rule="evenodd" d="M20.2506 87.6105H17.4956C17.0816 87.6105 16.7456 87.2745 16.7456 86.8605C16.7456 86.4465 17.0816 86.1105 17.4956 86.1105H20.2506C20.6646 86.1105 21.0006 86.4465 21.0006 86.8605C21.0006 87.2745 20.6646 87.6105 20.2506 87.6105" fill="#199A8E"/>
<mask id="mask2_1_1143" style="mask-type:alpha" maskUnits="userSpaceOnUse" x="12" y="81" width="19" height="20">
<path fill-rule="evenodd" clip-rule="evenodd" d="M12 81.0002H30.1647V100.91H12V81.0002Z" fill="white"/>
</mask>
<g mask="url(#mask2_1_1143)">
<path fill-rule="evenodd" clip-rule="evenodd" d="M24.9088 82.5L17.2198 82.504C14.8918 82.518 13.4998 83.958 13.4998 86.357V95.553C13.4998 97.968 14.9048 99.41 17.2558 99.41L24.9448 99.407C27.2728 99.393 28.6648 97.951 28.6648 95.553V86.357C28.6648 83.942 27.2608 82.5 24.9088 82.5ZM17.2568 100.91C14.1128 100.91 11.9998 98.757 11.9998 95.553V86.357C11.9998 83.124 14.0468 81.023 17.2148 81.004L24.9078 81H24.9088C28.0528 81 30.1648 83.153 30.1648 86.357V95.553C30.1648 98.785 28.1178 100.887 24.9498 100.907L17.2568 100.91Z" fill="#199A8E"/>
</g>
<path d="M318.746 99.7589C318.448 99.4667 318.421 99.0095 318.665 98.6873L318.746 98.595L325.473 92L318.746 85.405C318.448 85.1128 318.421 84.6556 318.665 84.3334L318.746 84.2411C319.044 83.9489 319.51 83.9223 319.839 84.1614L319.933 84.2411L327.254 91.418C327.552 91.7102 327.579 92.1675 327.335 92.4897L327.254 92.582L319.933 99.7589C319.605 100.08 319.074 100.08 318.746 99.7589Z" fill="#555555"/>
<path d="M63.642 97H61.392L65.4886 85.3636H68.0909L72.1932 97H69.9432L66.8352 87.75H66.7443L63.642 97ZM63.7159 92.4375H69.8523V94.1307H63.7159V92.4375ZM73.6349 100.273V88.2727H75.6577V89.7159H75.777C75.883 89.5038 76.0327 89.2784 76.2259 89.0398C76.419 88.7973 76.6804 88.5909 77.0099 88.4205C77.3395 88.2462 77.7599 88.1591 78.2713 88.1591C78.9455 88.1591 79.5535 88.3314 80.0952 88.6761C80.6406 89.017 81.0724 89.5227 81.3906 90.1932C81.7126 90.8598 81.8736 91.678 81.8736 92.6477C81.8736 93.6061 81.7164 94.4205 81.402 95.0909C81.0876 95.7614 80.6596 96.2727 80.1179 96.625C79.5762 96.9773 78.9626 97.1534 78.277 97.1534C77.777 97.1534 77.3622 97.0701 77.0327 96.9034C76.7031 96.7367 76.438 96.536 76.2372 96.3011C76.0402 96.0625 75.8868 95.8371 75.777 95.625H75.6918V100.273H73.6349ZM75.652 92.6364C75.652 93.2008 75.7315 93.6951 75.8906 94.1193C76.0535 94.5436 76.2865 94.875 76.5895 95.1136C76.8963 95.3485 77.2675 95.4659 77.7031 95.4659C78.1577 95.4659 78.5384 95.3447 78.8452 95.1023C79.152 94.8561 79.383 94.5208 79.5384 94.0966C79.6974 93.6686 79.777 93.1818 79.777 92.6364C79.777 92.0947 79.6993 91.6136 79.544 91.1932C79.3887 90.7727 79.1577 90.4432 78.8509 90.2045C78.544 89.9659 78.1615 89.8466 77.7031 89.8466C77.2637 89.8466 76.8906 89.9621 76.5838 90.1932C76.277 90.4242 76.044 90.7481 75.8849 91.1648C75.7296 91.5814 75.652 92.072 75.652 92.6364ZM83.6349 100.273V88.2727H85.6577V89.7159H85.777C85.883 89.5038 86.0327 89.2784 86.2259 89.0398C86.419 88.7973 86.6804 88.5909 87.0099 88.4205C87.3395 88.2462 87.7599 88.1591 88.2713 88.1591C88.9455 88.1591 89.5535 88.3314 90.0952 88.6761C90.6406 89.017 91.0724 89.5227 91.3906 90.1932C91.7126 90.8598 91.8736 91.678 91.8736 92.6477C91.8736 93.6061 91.7164 94.4205 91.402 95.0909C91.0876 95.7614 90.6596 96.2727 90.1179 96.625C89.5762 96.9773 88.9626 97.1534 88.277 97.1534C87.777 97.1534 87.3622 97.0701 87.0327 96.9034C86.7031 96.7367 86.438 96.536 86.2372 96.3011C86.0402 96.0625 85.8868 95.8371 85.777 95.625H85.6918V100.273H83.6349ZM85.652 92.6364C85.652 93.2008 85.7315 93.6951 85.8906 94.1193C86.0535 94.5436 86.2865 94.875 86.5895 95.1136C86.8963 95.3485 87.2675 95.4659 87.7031 95.4659C88.1577 95.4659 88.5384 95.3447 88.8452 95.1023C89.152 94.8561 89.383 94.5208 89.5384 94.0966C89.6974 93.6686 89.777 93.1818 89.777 92.6364C89.777 92.0947 89.6993 91.6136 89.544 91.1932C89.3887 90.7727 89.1577 90.4432 88.8509 90.2045C88.544 89.9659 88.1615 89.8466 87.7031 89.8466C87.2637 89.8466 86.8906 89.9621 86.5838 90.1932C86.277 90.4242 86.044 90.7481 85.8849 91.1648C85.7296 91.5814 85.652 92.072 85.652 92.6364ZM97.4418 97.1705C96.5895 97.1705 95.8509 96.983 95.2259 96.608C94.6009 96.233 94.116 95.7083 93.7713 95.0341C93.4304 94.3598 93.2599 93.572 93.2599 92.6705C93.2599 91.7689 93.4304 90.9792 93.7713 90.3011C94.116 89.6231 94.6009 89.0966 95.2259 88.7216C95.8509 88.3466 96.5895 88.1591 97.4418 88.1591C98.294 88.1591 99.0327 88.3466 99.6577 88.7216C100.283 89.0966 100.766 89.6231 101.107 90.3011C101.451 90.9792 101.624 91.7689 101.624 92.6705C101.624 93.572 101.451 94.3598 101.107 95.0341C100.766 95.7083 100.283 96.233 99.6577 96.608C99.0327 96.983 98.294 97.1705 97.4418 97.1705ZM97.4531 95.5227C97.9152 95.5227 98.3016 95.3958 98.6122 95.142C98.9228 94.8845 99.1539 94.5398 99.3054 94.108C99.4607 93.6761 99.5384 93.1951 99.5384 92.6648C99.5384 92.1307 99.4607 91.6477 99.3054 91.2159C99.1539 90.7803 98.9228 90.4337 98.6122 90.1761C98.3016 89.9186 97.9152 89.7898 97.4531 89.7898C96.9796 89.7898 96.5857 89.9186 96.2713 90.1761C95.9607 90.4337 95.7277 90.7803 95.5724 91.2159C95.4209 91.6477 95.3452 92.1307 95.3452 92.6648C95.3452 93.1951 95.4209 93.6761 95.5724 94.108C95.7277 94.5398 95.9607 94.8845 96.2713 95.142C96.5857 95.3958 96.9796 95.5227 97.4531 95.5227ZM103.369 97V88.2727H105.426V97H103.369ZM104.403 87.0341C104.078 87.0341 103.797 86.9261 103.562 86.7102C103.328 86.4905 103.21 86.2273 103.21 85.9205C103.21 85.6098 103.328 85.3466 103.562 85.1307C103.797 84.911 104.078 84.8011 104.403 84.8011C104.733 84.8011 105.013 84.911 105.244 85.1307C105.479 85.3466 105.597 85.6098 105.597 85.9205C105.597 86.2273 105.479 86.4905 105.244 86.7102C105.013 86.9261 104.733 87.0341 104.403 87.0341ZM109.598 91.8864V97H107.541V88.2727H109.507V89.7557H109.609C109.81 89.267 110.13 88.8788 110.57 88.5909C111.013 88.303 111.56 88.1591 112.212 88.1591C112.814 88.1591 113.339 88.2879 113.786 88.5455C114.236 88.803 114.585 89.1761 114.831 89.6648C115.081 90.1534 115.204 90.7462 115.2 91.4432V97H113.143V91.7614C113.143 91.178 112.992 90.7216 112.689 90.392C112.39 90.0625 111.975 89.8977 111.445 89.8977C111.085 89.8977 110.765 89.9773 110.484 90.1364C110.208 90.2917 109.99 90.517 109.831 90.8125C109.676 91.108 109.598 91.4659 109.598 91.8864ZM121.649 88.2727V89.8636H116.632V88.2727H121.649ZM117.871 86.1818H119.928V94.375C119.928 94.6515 119.969 94.8636 120.053 95.0114C120.14 95.1553 120.253 95.2538 120.393 95.3068C120.534 95.3598 120.689 95.3864 120.859 95.3864C120.988 95.3864 121.106 95.3769 121.212 95.358C121.321 95.339 121.405 95.322 121.462 95.3068L121.808 96.9148C121.698 96.9527 121.541 96.9943 121.337 97.0398C121.136 97.0852 120.89 97.1117 120.598 97.1193C120.083 97.1345 119.619 97.0568 119.206 96.8864C118.793 96.7121 118.465 96.4432 118.223 96.0795C117.984 95.7159 117.867 95.2614 117.871 94.7159V86.1818ZM123.369 97V88.2727H125.335V89.7557H125.438C125.619 89.2557 125.92 88.8655 126.341 88.5852C126.761 88.3011 127.263 88.1591 127.847 88.1591C128.438 88.1591 128.936 88.303 129.341 88.5909C129.75 88.875 130.038 89.2633 130.205 89.7557H130.295C130.489 89.2708 130.814 88.8845 131.273 88.5966C131.735 88.3049 132.282 88.1591 132.915 88.1591C133.718 88.1591 134.373 88.4129 134.881 88.9205C135.388 89.428 135.642 90.1686 135.642 91.142V97H133.58V91.4602C133.58 90.9186 133.436 90.5227 133.148 90.2727C132.86 90.0189 132.508 89.892 132.091 89.892C131.595 89.892 131.206 90.0473 130.926 90.358C130.65 90.6648 130.511 91.0644 130.511 91.5568V97H128.494V91.375C128.494 90.9242 128.358 90.5644 128.085 90.2955C127.816 90.0265 127.464 89.892 127.028 89.892C126.733 89.892 126.464 89.9678 126.222 90.1193C125.979 90.267 125.786 90.4773 125.642 90.75C125.498 91.0189 125.426 91.3333 125.426 91.6932V97H123.369ZM141.592 97.1705C140.717 97.1705 139.962 96.9886 139.325 96.625C138.693 96.2576 138.206 95.7386 137.865 95.0682C137.524 94.3939 137.354 93.6004 137.354 92.6875C137.354 91.7898 137.524 91.0019 137.865 90.3239C138.21 89.642 138.691 89.1117 139.308 88.733C139.926 88.3504 140.651 88.1591 141.484 88.1591C142.022 88.1591 142.53 88.2462 143.007 88.4205C143.488 88.5909 143.912 88.8561 144.28 89.2159C144.651 89.5758 144.943 90.0341 145.155 90.5909C145.367 91.1439 145.473 91.803 145.473 92.5682V93.1989H138.32V91.8125H143.501C143.498 91.4186 143.412 91.0682 143.246 90.7614C143.079 90.4508 142.846 90.2064 142.547 90.0284C142.251 89.8504 141.907 89.7614 141.513 89.7614C141.092 89.7614 140.723 89.8636 140.405 90.0682C140.087 90.2689 139.839 90.5341 139.661 90.8636C139.486 91.1894 139.397 91.5473 139.393 91.9375V93.1477C139.393 93.6553 139.486 94.0909 139.672 94.4545C139.857 94.8144 140.117 95.0909 140.45 95.2841C140.784 95.4735 141.174 95.5682 141.621 95.5682C141.92 95.5682 142.191 95.5265 142.433 95.4432C142.676 95.3561 142.886 95.2292 143.064 95.0625C143.242 94.8958 143.376 94.6894 143.467 94.4432L145.388 94.6591C145.267 95.1667 145.036 95.6098 144.695 95.9886C144.357 96.3636 143.926 96.6553 143.399 96.8636C142.873 97.0682 142.27 97.1705 141.592 97.1705ZM149.27 91.8864V97H147.213V88.2727H149.179V89.7557H149.281C149.482 89.267 149.802 88.8788 150.241 88.5909C150.685 88.303 151.232 88.1591 151.884 88.1591C152.486 88.1591 153.01 88.2879 153.457 88.5455C153.908 88.803 154.257 89.1761 154.503 89.6648C154.753 90.1534 154.876 90.7462 154.872 91.4432V97H152.815V91.7614C152.815 91.178 152.664 90.7216 152.361 90.392C152.062 90.0625 151.647 89.8977 151.116 89.8977C150.757 89.8977 150.437 89.9773 150.156 90.1364C149.88 90.2917 149.662 90.517 149.503 90.8125C149.348 91.108 149.27 91.4659 149.27 91.8864ZM161.321 88.2727V89.8636H156.304V88.2727H161.321ZM157.543 86.1818H159.599V94.375C159.599 94.6515 159.641 94.8636 159.724 95.0114C159.812 95.1553 159.925 95.2538 160.065 95.3068C160.205 95.3598 160.361 95.3864 160.531 95.3864C160.66 95.3864 160.777 95.3769 160.884 95.358C160.993 95.339 161.077 95.322 161.134 95.3068L161.48 96.9148C161.37 96.9527 161.213 96.9943 161.009 97.0398C160.808 97.0852 160.562 97.1117 160.27 97.1193C159.755 97.1345 159.291 97.0568 158.878 96.8864C158.465 96.7121 158.137 96.4432 157.895 96.0795C157.656 95.7159 157.539 95.2614 157.543 94.7159V86.1818ZM169.814 90.5795L167.939 90.7841C167.886 90.5947 167.793 90.4167 167.661 90.25C167.532 90.0833 167.357 89.9489 167.138 89.8466C166.918 89.7443 166.649 89.6932 166.331 89.6932C165.903 89.6932 165.543 89.786 165.251 89.9716C164.964 90.1572 164.821 90.3977 164.825 90.6932C164.821 90.947 164.914 91.1534 165.104 91.3125C165.297 91.4716 165.615 91.6023 166.058 91.7045L167.547 92.0227C168.373 92.2008 168.986 92.483 169.388 92.8693C169.793 93.2557 169.998 93.7614 170.001 94.3864C169.998 94.9356 169.837 95.4205 169.518 95.8409C169.204 96.2576 168.767 96.5833 168.206 96.8182C167.645 97.053 167.001 97.1705 166.274 97.1705C165.206 97.1705 164.346 96.947 163.695 96.5C163.043 96.0492 162.655 95.4223 162.53 94.6193L164.536 94.4261C164.626 94.8201 164.82 95.1174 165.115 95.3182C165.411 95.5189 165.795 95.6193 166.268 95.6193C166.757 95.6193 167.149 95.5189 167.445 95.3182C167.744 95.1174 167.893 94.8693 167.893 94.5739C167.893 94.3239 167.797 94.1174 167.604 93.9545C167.414 93.7917 167.119 93.6667 166.717 93.5795L165.229 93.267C164.392 93.0928 163.772 92.7992 163.371 92.3864C162.969 91.9697 162.77 91.4432 162.774 90.8068C162.77 90.2689 162.916 89.803 163.212 89.4091C163.511 89.0114 163.926 88.7045 164.456 88.4886C164.99 88.2689 165.606 88.1591 166.303 88.1591C167.325 88.1591 168.13 88.3769 168.717 88.8125C169.308 89.2481 169.674 89.8371 169.814 90.5795Z" fill="#101623"/>
<circle cx="21.5" cy="21.5" r="21.5" fill="#E8F3F1"/>
<mask id="mask3_1_1143" style="mask-type:alpha" maskUnits="userSpaceOnUse" x="11" y="12" width="21" height="21">
<path fill-rule="evenodd" clip-rule="evenodd" d="M11 12.9999H31.4725V32.5009H11V12.9999Z" fill="white"/>
</mask>
<g mask="url(#mask3_1_1143)">
<path fill-rule="evenodd" clip-rule="evenodd" d="M12.8237 22.123C14.2257 26.485 19.7647 30.012 21.2367 30.885C22.7137 30.003 28.2927 26.437 29.6497 22.127C30.5407 19.341 29.7137 15.812 26.4277 14.753C24.8357 14.242 22.9787 14.553 21.6967 15.545C21.4287 15.751 21.0567 15.755 20.7867 15.551C19.4287 14.53 17.6547 14.231 16.0377 14.753C12.7567 15.811 11.9327 19.34 12.8237 22.123M21.2377 32.501C21.1137 32.501 20.9907 32.471 20.8787 32.41C20.5657 32.239 13.1927 28.175 11.3957 22.581C11.3947 22.581 11.3947 22.58 11.3947 22.58C10.2667 19.058 11.5227 14.632 15.5777 13.325C17.4817 12.709 19.5567 12.98 21.2347 14.039C22.8607 13.011 25.0207 12.727 26.8867 13.325C30.9457 14.634 32.2057 19.059 31.0787 22.58C29.3397 28.11 21.9127 32.235 21.5977 32.408C21.4857 32.47 21.3617 32.501 21.2377 32.501" fill="#199A8E"/>
</g>
<path fill-rule="evenodd" clip-rule="evenodd" d="M27.1537 20.6249C26.7667 20.6249 26.4387 20.3279 26.4067 19.9359C26.3407 19.1139 25.7907 18.4199 25.0077 18.1669C24.6127 18.0389 24.3967 17.6159 24.5237 17.2229C24.6527 16.8289 25.0717 16.6149 25.4677 16.7389C26.8307 17.1799 27.7857 18.3869 27.9027 19.8139C27.9357 20.2269 27.6287 20.5889 27.2157 20.6219C27.1947 20.6239 27.1747 20.6249 27.1537 20.6249" fill="#199A8E"/>
<path d="M62.1477 15.3636H64.7273L68.1818 23.7955H68.3182L71.7727 15.3636H74.3523V27H72.3295V19.0057H72.2216L69.0057 26.9659H67.4943L64.2784 18.9886H64.1705V27H62.1477V15.3636ZM77.8352 30.2727C77.5549 30.2727 77.2955 30.25 77.0568 30.2045C76.822 30.1629 76.6345 30.1136 76.4943 30.0568L76.9716 28.4545C77.2708 28.5417 77.5379 28.5833 77.7727 28.5795C78.0076 28.5758 78.214 28.5019 78.392 28.358C78.5739 28.2178 78.7273 27.983 78.8523 27.6534L79.0284 27.1818L75.8636 18.2727H78.0455L80.0568 24.8636H80.1477L82.1648 18.2727H84.3523L80.858 28.0568C80.6951 28.5189 80.4792 28.9148 80.2102 29.2443C79.9413 29.5777 79.6117 29.8314 79.2216 30.0057C78.8352 30.1837 78.3731 30.2727 77.8352 30.2727ZM96.1591 18.5625C96.1061 18.0663 95.8826 17.6799 95.4886 17.4034C95.0985 17.1269 94.5909 16.9886 93.9659 16.9886C93.5265 16.9886 93.1496 17.0549 92.8352 17.1875C92.5208 17.3201 92.2803 17.5 92.1136 17.7273C91.947 17.9545 91.8617 18.214 91.858 18.5057C91.858 18.7481 91.9129 18.9583 92.0227 19.1364C92.1364 19.3144 92.2898 19.4659 92.483 19.5909C92.6761 19.7121 92.8902 19.8144 93.125 19.8977C93.3598 19.9811 93.5966 20.0511 93.8352 20.108L94.9261 20.3807C95.3655 20.483 95.7879 20.6212 96.1932 20.7955C96.6023 20.9697 96.9678 21.1894 97.2898 21.4545C97.6155 21.7197 97.8731 22.0398 98.0625 22.4148C98.2519 22.7898 98.3466 23.2292 98.3466 23.733C98.3466 24.4148 98.1723 25.0152 97.8239 25.5341C97.4754 26.0492 96.9716 26.4527 96.3125 26.7443C95.6572 27.0322 94.8636 27.1761 93.9318 27.1761C93.0265 27.1761 92.2405 27.036 91.5739 26.7557C90.911 26.4754 90.392 26.0663 90.017 25.5284C89.6458 24.9905 89.4451 24.3352 89.4148 23.5625H91.4886C91.5189 23.9678 91.6439 24.3049 91.8636 24.5739C92.0833 24.8428 92.3693 25.0436 92.7216 25.1761C93.0777 25.3087 93.4754 25.375 93.9148 25.375C94.3731 25.375 94.7746 25.3068 95.1193 25.1705C95.4678 25.0303 95.7405 24.8371 95.9375 24.5909C96.1345 24.3409 96.2348 24.0492 96.2386 23.7159C96.2348 23.4129 96.1458 23.1629 95.9716 22.9659C95.7973 22.7652 95.553 22.5985 95.2386 22.4659C94.928 22.3295 94.5644 22.2083 94.1477 22.1023L92.8239 21.7614C91.8655 21.5152 91.108 21.142 90.5511 20.642C89.9981 20.1383 89.7216 19.4697 89.7216 18.6364C89.7216 17.9508 89.9072 17.3504 90.2784 16.8352C90.6534 16.3201 91.1629 15.9205 91.8068 15.6364C92.4508 15.3485 93.1799 15.2045 93.9943 15.2045C94.8201 15.2045 95.5436 15.3485 96.1648 15.6364C96.7898 15.9205 97.2803 16.3163 97.6364 16.8239C97.9924 17.3277 98.1761 17.9072 98.1875 18.5625H96.1591ZM102.646 27.1761C102.093 27.1761 101.595 27.0777 101.152 26.8807C100.713 26.6799 100.364 26.3845 100.107 25.9943C99.8527 25.6042 99.7259 25.1231 99.7259 24.5511C99.7259 24.0587 99.8168 23.6515 99.9986 23.3295C100.18 23.0076 100.429 22.75 100.743 22.5568C101.057 22.3636 101.411 22.2178 101.805 22.1193C102.203 22.017 102.614 21.9432 103.038 21.8977C103.55 21.8447 103.964 21.7973 104.283 21.7557C104.601 21.7102 104.832 21.642 104.976 21.5511C105.124 21.4564 105.197 21.3106 105.197 21.1136V21.0795C105.197 20.6515 105.071 20.3201 104.817 20.0852C104.563 19.8504 104.197 19.733 103.72 19.733C103.216 19.733 102.817 19.8428 102.521 20.0625C102.23 20.2822 102.033 20.5417 101.93 20.8409L100.01 20.5682C100.161 20.0379 100.411 19.5947 100.76 19.2386C101.108 18.8788 101.535 18.6098 102.038 18.4318C102.542 18.25 103.099 18.1591 103.709 18.1591C104.129 18.1591 104.548 18.2083 104.964 18.3068C105.381 18.4053 105.762 18.5682 106.107 18.7955C106.451 19.0189 106.728 19.3239 106.936 19.7102C107.148 20.0966 107.254 20.5795 107.254 21.1591V27H105.277V25.8011H105.209C105.084 26.0436 104.908 26.2708 104.68 26.483C104.457 26.6913 104.175 26.8598 103.834 26.9886C103.497 27.1136 103.101 27.1761 102.646 27.1761ZM103.18 25.6648C103.593 25.6648 103.951 25.5833 104.254 25.4205C104.557 25.2538 104.79 25.0341 104.953 24.7614C105.12 24.4886 105.203 24.1913 105.203 23.8693V22.8409C105.139 22.8939 105.029 22.9432 104.874 22.9886C104.722 23.0341 104.552 23.0739 104.362 23.108C104.173 23.142 103.985 23.1723 103.8 23.1989C103.614 23.2254 103.453 23.2481 103.317 23.267C103.01 23.3087 102.735 23.3769 102.493 23.4716C102.25 23.5663 102.059 23.6989 101.919 23.8693C101.779 24.036 101.709 24.2519 101.709 24.517C101.709 24.8958 101.847 25.1818 102.124 25.375C102.4 25.5682 102.752 25.6648 103.18 25.6648ZM116.805 18.2727L113.697 27H111.425L108.317 18.2727H110.51L112.516 24.7557H112.607L114.618 18.2727H116.805ZM121.795 27.1705C120.92 27.1705 120.165 26.9886 119.528 26.625C118.896 26.2576 118.409 25.7386 118.068 25.0682C117.727 24.3939 117.557 23.6004 117.557 22.6875C117.557 21.7898 117.727 21.0019 118.068 20.3239C118.413 19.642 118.894 19.1117 119.511 18.733C120.129 18.3504 120.854 18.1591 121.688 18.1591C122.225 18.1591 122.733 18.2462 123.21 18.4205C123.691 18.5909 124.116 18.8561 124.483 19.2159C124.854 19.5758 125.146 20.0341 125.358 20.5909C125.57 21.1439 125.676 21.803 125.676 22.5682V23.1989H118.523V21.8125H123.705C123.701 21.4186 123.616 21.0682 123.449 20.7614C123.282 20.4508 123.049 20.2064 122.75 20.0284C122.455 19.8504 122.11 19.7614 121.716 19.7614C121.295 19.7614 120.926 19.8636 120.608 20.0682C120.29 20.2689 120.042 20.5341 119.864 20.8636C119.689 21.1894 119.6 21.5473 119.597 21.9375V23.1477C119.597 23.6553 119.689 24.0909 119.875 24.4545C120.061 24.8144 120.32 25.0909 120.653 25.2841C120.987 25.4735 121.377 25.5682 121.824 25.5682C122.123 25.5682 122.394 25.5265 122.636 25.4432C122.879 25.3561 123.089 25.2292 123.267 25.0625C123.445 24.8958 123.58 24.6894 123.67 24.4432L125.591 24.6591C125.47 25.1667 125.239 25.6098 124.898 25.9886C124.561 26.3636 124.129 26.6553 123.602 26.8636C123.076 27.0682 122.473 27.1705 121.795 27.1705ZM130.655 27.1534C129.969 27.1534 129.356 26.9773 128.814 26.625C128.272 26.2727 127.844 25.7614 127.53 25.0909C127.215 24.4205 127.058 23.6061 127.058 22.6477C127.058 21.678 127.217 20.8598 127.536 20.1932C127.857 19.5227 128.291 19.017 128.837 18.6761C129.382 18.3314 129.99 18.1591 130.661 18.1591C131.172 18.1591 131.592 18.2462 131.922 18.4205C132.251 18.5909 132.513 18.7973 132.706 19.0398C132.899 19.2784 133.049 19.5038 133.155 19.7159H133.24V15.3636H135.303V27H133.28V25.625H133.155C133.049 25.8371 132.895 26.0625 132.695 26.3011C132.494 26.536 132.229 26.7367 131.899 26.9034C131.57 27.0701 131.155 27.1534 130.655 27.1534ZM131.229 25.4659C131.664 25.4659 132.036 25.3485 132.342 25.1136C132.649 24.875 132.882 24.5436 133.041 24.1193C133.2 23.6951 133.28 23.2008 133.28 22.6364C133.28 22.072 133.2 21.5814 133.041 21.1648C132.886 20.7481 132.655 20.4242 132.348 20.1932C132.045 19.9621 131.672 19.8466 131.229 19.8466C130.77 19.8466 130.388 19.9659 130.081 20.2045C129.774 20.4432 129.543 20.7727 129.388 21.1932C129.232 21.6136 129.155 22.0947 129.155 22.6364C129.155 23.1818 129.232 23.6686 129.388 24.0966C129.547 24.5208 129.78 24.8561 130.087 25.1023C130.397 25.3447 130.778 25.4659 131.229 25.4659Z" fill="#101623"/>
<path d="M318.746 29.7589C318.448 29.4667 318.421 29.0095 318.665 28.6873L318.746 28.595L325.473 22L318.746 15.405C318.448 15.1128 318.421 14.6556 318.665 14.3334L318.746 14.2411C319.044 13.9489 319.51 13.9223 319.839 14.1614L319.933 14.2411L327.254 21.418C327.552 21.7102 327.579 22.1675 327.335 22.4897L327.254 22.582L319.933 29.7589C319.605 30.0804 319.074 30.0804 318.746 29.7589Z" fill="#555555"/>
</svg>
